<?xml version="1.0" standalone="no"?>
<!DOCTYPE svg PUBLIC "-//W3C//DTD SVG 20010904//EN"
 "http://www.w3.org/TR/2001/REC-SVG-20010904/DTD/svg10.dtd">
<svg version="1.0" xmlns="http://www.w3.org/2000/svg"
 width="636.000000pt" height="636.000000pt" viewBox="0 0 636.000000 636.000000"
 preserveAspectRatio="xMidYMid meet">
<metadata>
Created by potrace 1.11, written by Peter Selinger 2001-2013
</metadata>
<g transform="translate(0.000000,636.000000) scale(0.100000,-0.100000)"
fill="#000000" stroke="none">
<path d="M2575 6091 c-275 -58 -501 -187 -735 -421 -214 -213 -387 -466 -565
-821 -319 -640 -541 -1429 -611 -2169 -20 -220 -15 -669 10 -825 34 -208 93
-410 158 -539 112 -226 302 -412 513 -504 495 -216 1348 -160 2097 139 773
308 1353 802 1649 1404 157 320 218 564 226 910 6 239 -12 402 -67 615 -266
1035 -1200 1995 -2140 2201 -140 30 -412 35 -535 10z m570 -1781 c99 -31 186
-80 377 -214 188 -132 260 -198 329 -304 117 -178 175 -461 119 -572 -22 -44
-79 -87 -125 -95 -34 -6 -1150 -85 -1203 -85 l-34 0 7 -47 c9 -64 57 -185 89
-227 29 -39 66 -48 204 -47 156 0 293 50 407 146 81 69 114 85 172 85 45 0 60
-6 120 -46 274 -187 283 -196 283 -274 0 -55 -28 -105 -91 -166 -109 -102
-268 -191 -424 -236 -70 -20 -102 -23 -255 -23 -189 0 -255 12 -385 69 -95 43
-438 290 -515 373 -128 137 -203 331 -216 558 -16 265 45 503 179 706 149 228
381 383 632 422 73 12 261 -1 330 -23z"/>
<path d="M3051 3805 c-99 -22 -185 -68 -254 -134 -34 -33 -70 -73 -79 -89
l-18 -30 43 4 c23 3 170 13 326 24 156 11 287 22 290 25 8 8 -18 122 -36 160
-9 19 -23 37 -32 41 -35 13 -178 13 -240 -1z"/>
</g>
</svg>
